<?xml version="1.0" standalone="no"?>
<!DOCTYPE svg PUBLIC "-//W3C//DTD SVG 20010904//EN"
 "http://www.w3.org/TR/2001/REC-SVG-20010904/DTD/svg10.dtd">
<svg version="1.0" xmlns="http://www.w3.org/2000/svg"
 width="512.000000pt" height="512.000000pt" viewBox="0 0 512.000000 512.000000"
 preserveAspectRatio="xMidYMid meet">
<metadata>
Created by potrace 1.14, written by Peter Selinger 2001-2017
</metadata>
<g transform="translate(0.000000,512.000000) scale(0.100000,-0.100000)"
fill="#000000" stroke="none">
<path d="M2760 3898 c-213 -14 -392 -83 -585 -224 -149 -109 -220 -153 -297
-183 -92 -37 -218 -61 -320 -61 -256 0 -502 -128 -663 -345 -44 -59 -60 -73
-103 -88 -45 -15 -93 -45 -202 -123 -83 -60 -195 20 -165 117 4 13 81 98 170
189 134 137 164 173 178 214 21 61 21 108 2 172 -19 64 -60 113 -126 149 -53
29 -57 30 -195 30 -125 0 -144 -2 -163 -19 -32 -29 -29 -88 5 -115 24 -18 41
-21 141 -21 64 0 124 -5 136 -11 38 -20 57 -51 57 -98 0 -44 -2 -46 -160 -206
-180 -182 -199 -213 -200 -315 0 -153 108 -262 260 -263 70 -1 128 23 199 80
l35 28 -9 -25 c-4 -14 -10 -122 -12 -240 l-4 -215 -199 -200 -199 -200 60
-265 c32 -146 68 -307 80 -357 l21 -93 199 0 c195 0 200 0 194 20 -18 57 -153
535 -152 536 5 5 407 124 418 124 7 0 5 -8 -7 -21 -18 -20 -17 -26 61 -337
l80 -317 193 -3 c152 -2 192 0 192 11 0 7 -34 114 -75 237 -41 123 -75 226
-75 227 0 2 105 73 232 158 l233 155 282 0 283 0 0 -117 1 -118 157 -275 158
-275 197 -3 c108 -1 197 0 197 4 0 3 -70 129 -155 278 l-155 271 0 118 0 117
195 0 195 0 0 -112 0 -112 161 -283 161 -283 194 0 c107 0 194 2 194 5 0 3
-70 127 -155 276 l-155 271 0 118 0 117 118 6 117 5 120 -119 120 -119 158 0
157 0 0 514 0 513 -507 434 c-278 239 -534 454 -567 477 -202 144 -442 209
-706 190z m766 -887 c52 -24 99 -81 122 -151 l19 -55 119 -5 119 -5 3 -158 3
-159 -153 4 c-168 4 -203 14 -259 75 -59 63 -64 83 -67 286 l-4 187 29 0 c15
0 46 -9 69 -19z"/>
</g>
</svg>
